<mxfile host="app.diagrams.net" agent="Mozilla/5.0 (Windows NT 10.0; Win64; x64) AppleWebKit/537.36 (KHTML, like Gecko) Chrome/129.0.0.0 Safari/537.36" version="24.7.17">
  <diagram name="Trang-1" id="wjOiqFHjS_-W7gVfGvTo">
    <mxGraphModel dx="2927" dy="1114" grid="0" gridSize="10" guides="1" tooltips="1" connect="1" arrows="1" fold="1" page="1" pageScale="1" pageWidth="827" pageHeight="1169" math="0" shadow="0">
      <root>
        <mxCell id="0" />
        <mxCell id="1" parent="0" />
        <mxCell id="_uw94Xala10GTrVy-LxW-1" value="" style="rounded=0;whiteSpace=wrap;html=1;fillColor=#f5f5f5;fontColor=#333333;strokeColor=#666666;" parent="1" vertex="1">
          <mxGeometry x="-102" y="38" width="1912" height="1608" as="geometry" />
        </mxCell>
        <mxCell id="hatgkcDQqOX4R3luDJ8e-195" value="" style="rounded=1;whiteSpace=wrap;html=1;fillColor=#ffcc99;strokeColor=#36393d;" parent="1" vertex="1">
          <mxGeometry x="1001" y="595" width="146" height="80" as="geometry" />
        </mxCell>
        <mxCell id="hatgkcDQqOX4R3luDJ8e-2" value="&lt;b&gt;&lt;font style=&quot;font-size: 23px;&quot;&gt;Firebase&lt;/font&gt;&lt;/b&gt;" style="ellipse;whiteSpace=wrap;html=1;fillColor=#ffe6cc;strokeColor=#d79b00;" parent="1" vertex="1">
          <mxGeometry x="970.6300000000001" y="558.75" width="210" height="157.5" as="geometry" />
        </mxCell>
        <mxCell id="hatgkcDQqOX4R3luDJ8e-3" value="&lt;span style=&quot;font-size: 17px;&quot;&gt;Đăng ký tài khoản&lt;/span&gt;" style="ellipse;whiteSpace=wrap;html=1;fillColor=#cce5ff;strokeColor=none;" parent="1" vertex="1">
          <mxGeometry x="123" y="237" width="120" height="70" as="geometry" />
        </mxCell>
        <mxCell id="hatgkcDQqOX4R3luDJ8e-7" value="&lt;span style=&quot;font-size: 17px;&quot;&gt;Đăng nhập&lt;/span&gt;" style="ellipse;whiteSpace=wrap;html=1;fillColor=#cce5ff;strokeColor=none;" parent="1" vertex="1">
          <mxGeometry x="213" y="436" width="120" height="70" as="geometry" />
        </mxCell>
        <mxCell id="hatgkcDQqOX4R3luDJ8e-8" value="&lt;font style=&quot;font-size: 17px;&quot;&gt;Chat&lt;/font&gt;" style="ellipse;whiteSpace=wrap;html=1;fillColor=#cce5ff;strokeColor=none;" parent="1" vertex="1">
          <mxGeometry x="213" y="950" width="120" height="70" as="geometry" />
        </mxCell>
        <mxCell id="hatgkcDQqOX4R3luDJ8e-9" value="&lt;font style=&quot;font-size: 17px;&quot;&gt;Kết bạn&lt;/font&gt;" style="ellipse;whiteSpace=wrap;html=1;fillColor=#cce5ff;strokeColor=none;" parent="1" vertex="1">
          <mxGeometry x="219" y="767" width="120" height="70" as="geometry" />
        </mxCell>
        <mxCell id="hatgkcDQqOX4R3luDJ8e-10" value="&lt;font style=&quot;font-size: 17px;&quot;&gt;Logout&lt;/font&gt;" style="ellipse;whiteSpace=wrap;html=1;fillColor=#cce5ff;strokeColor=none;" parent="1" vertex="1">
          <mxGeometry x="136" y="1498" width="120" height="70" as="geometry" />
        </mxCell>
        <mxCell id="hatgkcDQqOX4R3luDJ8e-11" value="" style="endArrow=none;html=1;rounded=0;entryX=0.008;entryY=0.666;entryDx=0;entryDy=0;entryPerimeter=0;" parent="1" target="hatgkcDQqOX4R3luDJ8e-7" edge="1">
          <mxGeometry width="50" height="50" relative="1" as="geometry">
            <mxPoint x="160" y="610" as="sourcePoint" />
            <mxPoint x="190" y="550" as="targetPoint" />
          </mxGeometry>
        </mxCell>
        <mxCell id="hatgkcDQqOX4R3luDJ8e-12" value="" style="endArrow=none;html=1;rounded=0;entryX=0;entryY=0;entryDx=0;entryDy=0;" parent="1" target="hatgkcDQqOX4R3luDJ8e-8" edge="1">
          <mxGeometry width="50" height="50" relative="1" as="geometry">
            <mxPoint x="155" y="713" as="sourcePoint" />
            <mxPoint x="344" y="893.52" as="targetPoint" />
            <Array as="points" />
          </mxGeometry>
        </mxCell>
        <mxCell id="hatgkcDQqOX4R3luDJ8e-13" value="" style="endArrow=none;html=1;rounded=0;entryX=0;entryY=0.5;entryDx=0;entryDy=0;" parent="1" edge="1">
          <mxGeometry width="50" height="50" relative="1" as="geometry">
            <mxPoint x="91" y="559" as="sourcePoint" />
            <mxPoint x="122" y="272" as="targetPoint" />
            <Array as="points">
              <mxPoint x="91" y="272" />
            </Array>
          </mxGeometry>
        </mxCell>
        <mxCell id="hatgkcDQqOX4R3luDJ8e-14" value="" style="endArrow=none;html=1;rounded=0;entryX=0.028;entryY=0.311;entryDx=0;entryDy=0;entryPerimeter=0;" parent="1" target="hatgkcDQqOX4R3luDJ8e-9" edge="1">
          <mxGeometry width="50" height="50" relative="1" as="geometry">
            <mxPoint x="167" y="679" as="sourcePoint" />
            <mxPoint x="190" y="740" as="targetPoint" />
          </mxGeometry>
        </mxCell>
        <mxCell id="hatgkcDQqOX4R3luDJ8e-16" value="" style="endArrow=none;html=1;rounded=0;" parent="1" edge="1">
          <mxGeometry width="50" height="50" relative="1" as="geometry">
            <mxPoint x="142" y="1549" as="sourcePoint" />
            <mxPoint x="89" y="750" as="targetPoint" />
            <Array as="points">
              <mxPoint x="81" y="1549" />
              <mxPoint x="88.85" y="964" />
            </Array>
          </mxGeometry>
        </mxCell>
        <mxCell id="hatgkcDQqOX4R3luDJ8e-17" value="" style="rounded=0;whiteSpace=wrap;html=1;" parent="1" vertex="1">
          <mxGeometry x="510" y="190" width="230" height="1422" as="geometry" />
        </mxCell>
        <mxCell id="hatgkcDQqOX4R3luDJ8e-20" value="&lt;font style=&quot;font-size: 17px;&quot;&gt;Xác thực đăng ký&lt;/font&gt;" style="ellipse;whiteSpace=wrap;html=1;fillColor=#cce5ff;strokeColor=none;" parent="1" vertex="1">
          <mxGeometry x="558" y="210" width="134" height="80" as="geometry" />
        </mxCell>
        <mxCell id="hatgkcDQqOX4R3luDJ8e-21" value="&lt;span style=&quot;font-size: 17px;&quot;&gt;Tạo tài khoản mới&lt;/span&gt;" style="ellipse;whiteSpace=wrap;html=1;fillColor=#cce5ff;strokeColor=none;" parent="1" vertex="1">
          <mxGeometry x="558" y="315" width="134" height="80" as="geometry" />
        </mxCell>
        <mxCell id="hatgkcDQqOX4R3luDJ8e-22" value="&lt;font style=&quot;font-size: 17px;&quot;&gt;Xác thực đăng nhập&lt;/font&gt;" style="ellipse;whiteSpace=wrap;html=1;strokeColor=none;fillColor=#cce5ff;" parent="1" vertex="1">
          <mxGeometry x="558" y="413" width="134" height="80" as="geometry" />
        </mxCell>
        <mxCell id="hatgkcDQqOX4R3luDJ8e-23" value="&lt;span style=&quot;font-size: 17px;&quot;&gt;Đã đăng nhập vào App&lt;/span&gt;" style="ellipse;whiteSpace=wrap;html=1;fillColor=#cce5ff;strokeColor=none;" parent="1" vertex="1">
          <mxGeometry x="558" y="508" width="134" height="80" as="geometry" />
        </mxCell>
        <mxCell id="hatgkcDQqOX4R3luDJ8e-24" value="&lt;font style=&quot;font-size: 17px;&quot;&gt;Gửi tin nhắn đến&lt;/font&gt;&lt;div&gt;&lt;span style=&quot;font-size: 17px;&quot;&gt;Firebase&lt;/span&gt;&lt;/div&gt;" style="ellipse;whiteSpace=wrap;html=1;fillColor=#cce5ff;strokeColor=none;" parent="1" vertex="1">
          <mxGeometry x="558" y="1011" width="134" height="80" as="geometry" />
        </mxCell>
        <mxCell id="hatgkcDQqOX4R3luDJ8e-25" value="&lt;font style=&quot;font-size: 17px;&quot;&gt;Cập nhật và hiển thị tin nhắn&lt;/font&gt;" style="ellipse;whiteSpace=wrap;html=1;fillColor=#cce5ff;strokeColor=none;" parent="1" vertex="1">
          <mxGeometry x="558" y="1120" width="134" height="80" as="geometry" />
        </mxCell>
        <mxCell id="hatgkcDQqOX4R3luDJ8e-26" value="&lt;font style=&quot;font-size: 17px;&quot;&gt;Gửi yêu cầu&lt;/font&gt;" style="ellipse;whiteSpace=wrap;html=1;fillColor=#cce5ff;strokeColor=none;" parent="1" vertex="1">
          <mxGeometry x="558" y="793" width="134" height="80" as="geometry" />
        </mxCell>
        <mxCell id="hatgkcDQqOX4R3luDJ8e-27" value="&lt;font style=&quot;font-size: 17px;&quot;&gt;Xác thực yêu cầu và cập nhật bạn bè&lt;/font&gt;" style="ellipse;whiteSpace=wrap;html=1;fillColor=#cce5ff;strokeColor=none;" parent="1" vertex="1">
          <mxGeometry x="558" y="891" width="134" height="80" as="geometry" />
        </mxCell>
        <mxCell id="hatgkcDQqOX4R3luDJ8e-28" value="&lt;font style=&quot;font-size: 17px;&quot;&gt;Loggout app&lt;/font&gt;" style="ellipse;whiteSpace=wrap;html=1;fillColor=#cce5ff;strokeColor=none;" parent="1" vertex="1">
          <mxGeometry x="553" y="1516" width="134" height="80" as="geometry" />
        </mxCell>
        <mxCell id="hatgkcDQqOX4R3luDJ8e-30" value="" style="rounded=0;whiteSpace=wrap;html=1;fillColor=#eeeeee;strokeColor=#36393d;rotation=-90;" parent="1" vertex="1">
          <mxGeometry x="1238.72" y="672.41" width="190" height="558.68" as="geometry" />
        </mxCell>
        <mxCell id="hatgkcDQqOX4R3luDJ8e-31" value="&lt;font style=&quot;font-size: 17px;&quot;&gt;Setup mode&amp;nbsp;&lt;/font&gt;&lt;div style=&quot;font-size: 17px;&quot;&gt;&lt;font style=&quot;font-size: 17px;&quot;&gt;view&lt;/font&gt;&lt;/div&gt;" style="ellipse;whiteSpace=wrap;html=1;fillColor=#cce5ff;strokeColor=none;" parent="1" vertex="1">
          <mxGeometry x="1077" y="920.38" width="134" height="80" as="geometry" />
        </mxCell>
        <mxCell id="hatgkcDQqOX4R3luDJ8e-32" value="&lt;font style=&quot;font-size: 16px;&quot;&gt;Yêu cầu dữ liệu để&lt;/font&gt;&lt;div style=&quot;font-size: 16px;&quot;&gt;&lt;font style=&quot;font-size: 16px;&quot;&gt;lấy và hiển thị&lt;/font&gt;&lt;/div&gt;" style="ellipse;whiteSpace=wrap;html=1;fillColor=#cce5ff;strokeColor=none;" parent="1" vertex="1">
          <mxGeometry x="1263" y="920.38" width="143.37" height="85.25" as="geometry" />
        </mxCell>
        <mxCell id="hatgkcDQqOX4R3luDJ8e-33" value="&lt;font style=&quot;font-size: 17px;&quot;&gt;Bảo trì hệ thống&lt;/font&gt;" style="ellipse;whiteSpace=wrap;html=1;fillColor=#cce5ff;strokeColor=none;" parent="1" vertex="1">
          <mxGeometry x="1459" y="923" width="134" height="80" as="geometry" />
        </mxCell>
        <mxCell id="hatgkcDQqOX4R3luDJ8e-34" value="&lt;font style=&quot;font-size: 17px;&quot;&gt;App&lt;/font&gt;" style="shape=umlActor;verticalLabelPosition=bottom;verticalAlign=top;html=1;outlineConnect=0;" parent="1" vertex="1">
          <mxGeometry x="1467" y="570" width="60" height="125" as="geometry" />
        </mxCell>
        <mxCell id="hatgkcDQqOX4R3luDJ8e-35" value="&lt;font style=&quot;font-size: 17px;&quot;&gt;User&lt;/font&gt;" style="shape=umlActor;verticalLabelPosition=bottom;verticalAlign=top;html=1;outlineConnect=0;" parent="1" vertex="1">
          <mxGeometry x="72" y="582" width="60" height="125" as="geometry" />
        </mxCell>
        <mxCell id="hatgkcDQqOX4R3luDJ8e-36" value="" style="verticalLabelPosition=bottom;verticalAlign=top;html=1;shape=mxgraph.basic.smiley;fillColor=#dae8fc;strokeColor=#6c8ebf;" parent="1" vertex="1">
          <mxGeometry x="78" y="576" width="48" height="40" as="geometry" />
        </mxCell>
        <mxCell id="hatgkcDQqOX4R3luDJ8e-38" value="" style="icon;html=1;image=img/clipart/Gear_128x128.png" parent="1" vertex="1">
          <mxGeometry x="1474" y="559" width="45" height="42" as="geometry" />
        </mxCell>
        <mxCell id="hatgkcDQqOX4R3luDJ8e-196" value="&lt;font color=&quot;#66b2ff&quot; style=&quot;font-size: 13px;&quot;&gt;&amp;nbsp;&amp;lt;&amp;lt;include&amp;gt;&amp;gt;&amp;nbsp;&lt;/font&gt;" style="endArrow=open;endSize=12;dashed=1;html=1;rounded=0;entryX=0;entryY=0.5;entryDx=0;entryDy=0;exitX=1;exitY=0;exitDx=0;exitDy=0;fillColor=#eeeeee;strokeColor=#000000;" parent="1" source="hatgkcDQqOX4R3luDJ8e-3" target="hatgkcDQqOX4R3luDJ8e-20" edge="1">
          <mxGeometry width="160" relative="1" as="geometry">
            <mxPoint x="310" y="280" as="sourcePoint" />
            <mxPoint x="470" y="280" as="targetPoint" />
          </mxGeometry>
        </mxCell>
        <mxCell id="hatgkcDQqOX4R3luDJ8e-198" value="&lt;font color=&quot;#66b2ff&quot; style=&quot;font-size: 13px;&quot;&gt;&amp;nbsp;&amp;lt;&amp;lt;include&amp;gt;&amp;gt;&amp;nbsp;&lt;/font&gt;" style="endArrow=open;endSize=12;dashed=1;html=1;rounded=0;entryX=0;entryY=0.5;entryDx=0;entryDy=0;exitX=1;exitY=0.5;exitDx=0;exitDy=0;fillColor=#eeeeee;strokeColor=#000000;" parent="1" source="hatgkcDQqOX4R3luDJ8e-3" target="hatgkcDQqOX4R3luDJ8e-21" edge="1">
          <mxGeometry width="160" relative="1" as="geometry">
            <mxPoint x="360" y="430" as="sourcePoint" />
            <mxPoint x="536" y="350" as="targetPoint" />
          </mxGeometry>
        </mxCell>
        <mxCell id="hatgkcDQqOX4R3luDJ8e-199" value="&lt;font color=&quot;#66b2ff&quot; style=&quot;font-size: 13px;&quot;&gt;&amp;nbsp;&amp;lt;&amp;lt;include&amp;gt;&amp;gt;&amp;nbsp;&lt;/font&gt;" style="endArrow=open;endSize=12;dashed=1;html=1;rounded=0;entryX=0;entryY=0.5;entryDx=0;entryDy=0;fillColor=#eeeeee;strokeColor=#000000;exitX=0.992;exitY=0.329;exitDx=0;exitDy=0;exitPerimeter=0;" parent="1" target="hatgkcDQqOX4R3luDJ8e-22" edge="1" source="hatgkcDQqOX4R3luDJ8e-7">
          <mxGeometry x="-0.0009" width="160" relative="1" as="geometry">
            <mxPoint x="390" y="480" as="sourcePoint" />
            <mxPoint x="548" y="480" as="targetPoint" />
            <mxPoint as="offset" />
          </mxGeometry>
        </mxCell>
        <mxCell id="hatgkcDQqOX4R3luDJ8e-200" value="&lt;font color=&quot;#66b2ff&quot; style=&quot;font-size: 13px;&quot;&gt;&amp;nbsp;&amp;lt;&amp;lt;include&amp;gt;&amp;gt;&amp;nbsp;&lt;/font&gt;" style="endArrow=open;endSize=12;dashed=1;html=1;rounded=0;entryX=0;entryY=0.5;entryDx=0;entryDy=0;exitX=0.964;exitY=0.771;exitDx=0;exitDy=0;fillColor=#eeeeee;strokeColor=#000000;exitPerimeter=0;" parent="1" source="hatgkcDQqOX4R3luDJ8e-7" target="hatgkcDQqOX4R3luDJ8e-23" edge="1">
          <mxGeometry width="160" relative="1" as="geometry">
            <mxPoint x="390" y="520" as="sourcePoint" />
            <mxPoint x="548" y="520" as="targetPoint" />
          </mxGeometry>
        </mxCell>
        <mxCell id="hatgkcDQqOX4R3luDJ8e-201" value="&lt;font color=&quot;#66b2ff&quot; style=&quot;font-size: 13px;&quot;&gt;&amp;nbsp;&amp;lt;&amp;lt;include&amp;gt;&amp;gt;&amp;nbsp;&lt;/font&gt;" style="endArrow=open;endSize=12;dashed=1;html=1;rounded=0;entryX=0;entryY=0.5;entryDx=0;entryDy=0;exitX=1;exitY=0.5;exitDx=0;exitDy=0;fillColor=#eeeeee;strokeColor=#000000;" parent="1" source="hatgkcDQqOX4R3luDJ8e-8" target="hatgkcDQqOX4R3luDJ8e-24" edge="1">
          <mxGeometry width="160" relative="1" as="geometry">
            <mxPoint x="400" y="625.5" as="sourcePoint" />
            <mxPoint x="562" y="659.5" as="targetPoint" />
          </mxGeometry>
        </mxCell>
        <mxCell id="hatgkcDQqOX4R3luDJ8e-202" value="&lt;font color=&quot;#66b2ff&quot; style=&quot;font-size: 13px;&quot;&gt;&amp;nbsp;&amp;lt;&amp;lt;include&amp;gt;&amp;gt;&amp;nbsp;&lt;/font&gt;" style="endArrow=open;endSize=12;dashed=1;html=1;rounded=0;entryX=0;entryY=0.5;entryDx=0;entryDy=0;exitX=1;exitY=1;exitDx=0;exitDy=0;fillColor=#eeeeee;strokeColor=#000000;" parent="1" source="hatgkcDQqOX4R3luDJ8e-8" target="hatgkcDQqOX4R3luDJ8e-25" edge="1">
          <mxGeometry width="160" relative="1" as="geometry">
            <mxPoint x="400" y="672.5" as="sourcePoint" />
            <mxPoint x="558" y="677.5" as="targetPoint" />
          </mxGeometry>
        </mxCell>
        <mxCell id="hatgkcDQqOX4R3luDJ8e-203" value="&lt;font color=&quot;#66b2ff&quot; style=&quot;font-size: 13px;&quot;&gt;&amp;nbsp;&amp;lt;&amp;lt;include&amp;gt;&amp;gt;&amp;nbsp;&lt;/font&gt;" style="endArrow=open;endSize=12;dashed=1;html=1;rounded=0;entryX=0;entryY=0.5;entryDx=0;entryDy=0;exitX=1;exitY=0.5;exitDx=0;exitDy=0;fillColor=#eeeeee;strokeColor=#000000;" parent="1" target="hatgkcDQqOX4R3luDJ8e-26" edge="1" source="hatgkcDQqOX4R3luDJ8e-9">
          <mxGeometry width="160" relative="1" as="geometry">
            <mxPoint x="400" y="779" as="sourcePoint" />
            <mxPoint x="576" y="852" as="targetPoint" />
          </mxGeometry>
        </mxCell>
        <mxCell id="hatgkcDQqOX4R3luDJ8e-204" value="&lt;font color=&quot;#66b2ff&quot; style=&quot;font-size: 13px;&quot;&gt;&amp;nbsp;&amp;lt;&amp;lt;include&amp;gt;&amp;gt;&amp;nbsp;&lt;/font&gt;" style="endArrow=open;endSize=12;dashed=1;html=1;rounded=0;entryX=0;entryY=0.5;entryDx=0;entryDy=0;exitX=1;exitY=1;exitDx=0;exitDy=0;fillColor=#eeeeee;strokeColor=#000000;" parent="1" target="hatgkcDQqOX4R3luDJ8e-27" edge="1" source="hatgkcDQqOX4R3luDJ8e-9">
          <mxGeometry width="160" relative="1" as="geometry">
            <mxPoint x="378" y="804" as="sourcePoint" />
            <mxPoint x="536" y="858" as="targetPoint" />
          </mxGeometry>
        </mxCell>
        <mxCell id="hatgkcDQqOX4R3luDJ8e-205" value="&lt;font color=&quot;#66b2ff&quot; style=&quot;font-size: 13px;&quot;&gt;&amp;nbsp;&amp;lt;&amp;lt;include&amp;gt;&amp;gt;&amp;nbsp;&lt;/font&gt;" style="endArrow=open;endSize=12;dashed=1;html=1;rounded=0;entryX=0;entryY=0.5;entryDx=0;entryDy=0;exitX=1;exitY=1;exitDx=0;exitDy=0;fillColor=#eeeeee;strokeColor=#000000;" parent="1" target="hatgkcDQqOX4R3luDJ8e-28" edge="1" source="hatgkcDQqOX4R3luDJ8e-10">
          <mxGeometry width="160" relative="1" as="geometry">
            <mxPoint x="393" y="944" as="sourcePoint" />
            <mxPoint x="551" y="998" as="targetPoint" />
          </mxGeometry>
        </mxCell>
        <mxCell id="hatgkcDQqOX4R3luDJ8e-206" value="&lt;font color=&quot;#66b2ff&quot; style=&quot;font-size: 13px;&quot;&gt;&amp;nbsp;&amp;lt;&amp;lt;include&amp;gt;&amp;gt;&amp;nbsp;&lt;/font&gt;" style="endArrow=open;endSize=12;dashed=1;html=1;rounded=0;entryX=1;entryY=0.5;entryDx=0;entryDy=0;exitX=0.5;exitY=1;exitDx=0;exitDy=0;fillColor=#eeeeee;strokeColor=#000000;" parent="1" source="hatgkcDQqOX4R3luDJ8e-2" target="hatgkcDQqOX4R3luDJ8e-28" edge="1">
          <mxGeometry width="160" relative="1" as="geometry">
            <mxPoint x="791" y="890" as="sourcePoint" />
            <mxPoint x="967" y="810" as="targetPoint" />
          </mxGeometry>
        </mxCell>
        <mxCell id="hatgkcDQqOX4R3luDJ8e-207" value="&lt;font color=&quot;#66b2ff&quot; style=&quot;font-size: 13px;&quot;&gt;&amp;nbsp;&amp;lt;&amp;lt;include&amp;gt;&amp;gt;&amp;nbsp;&lt;/font&gt;" style="endArrow=open;endSize=12;dashed=1;html=1;rounded=0;entryX=1;entryY=0.5;entryDx=0;entryDy=0;exitX=0;exitY=1;exitDx=0;exitDy=0;fillColor=#eeeeee;strokeColor=#000000;" parent="1" source="hatgkcDQqOX4R3luDJ8e-2" target="hatgkcDQqOX4R3luDJ8e-25" edge="1">
          <mxGeometry width="160" relative="1" as="geometry">
            <mxPoint x="807" y="756" as="sourcePoint" />
            <mxPoint x="965" y="756" as="targetPoint" />
          </mxGeometry>
        </mxCell>
        <mxCell id="hatgkcDQqOX4R3luDJ8e-208" value="&lt;font color=&quot;#66b2ff&quot; style=&quot;font-size: 13px;&quot;&gt;&amp;nbsp;&amp;lt;&amp;lt;include&amp;gt;&amp;gt;&amp;nbsp;&lt;/font&gt;" style="endArrow=open;endSize=12;dashed=1;html=1;rounded=0;entryX=1;entryY=0.5;entryDx=0;entryDy=0;fillColor=#eeeeee;strokeColor=#000000;exitX=0.038;exitY=0.756;exitDx=0;exitDy=0;exitPerimeter=0;" parent="1" source="hatgkcDQqOX4R3luDJ8e-2" target="hatgkcDQqOX4R3luDJ8e-24" edge="1">
          <mxGeometry width="160" relative="1" as="geometry">
            <mxPoint x="971" y="651" as="sourcePoint" />
            <mxPoint x="669" y="650" as="targetPoint" />
          </mxGeometry>
        </mxCell>
        <mxCell id="hatgkcDQqOX4R3luDJ8e-209" value="&lt;font color=&quot;#66b2ff&quot; style=&quot;font-size: 13px;&quot;&gt;&amp;nbsp;&amp;lt;&amp;lt;include&amp;gt;&amp;gt;&amp;nbsp;&lt;/font&gt;" style="endArrow=open;endSize=12;dashed=1;html=1;rounded=0;entryX=1;entryY=0.5;entryDx=0;entryDy=0;exitX=0;exitY=0;exitDx=0;exitDy=0;fillColor=#eeeeee;strokeColor=#000000;" parent="1" source="hatgkcDQqOX4R3luDJ8e-2" target="hatgkcDQqOX4R3luDJ8e-22" edge="1">
          <mxGeometry width="160" relative="1" as="geometry">
            <mxPoint x="994" y="503" as="sourcePoint" />
            <mxPoint x="715" y="508" as="targetPoint" />
          </mxGeometry>
        </mxCell>
        <mxCell id="hatgkcDQqOX4R3luDJ8e-210" value="&lt;font color=&quot;#66b2ff&quot; style=&quot;font-size: 13px;&quot;&gt;&amp;nbsp;&amp;lt;&amp;lt;include&amp;gt;&amp;gt;&amp;nbsp;&lt;/font&gt;" style="endArrow=open;endSize=12;dashed=1;html=1;rounded=0;entryX=1;entryY=0.5;entryDx=0;entryDy=0;exitX=0.395;exitY=0.012;exitDx=0;exitDy=0;fillColor=#eeeeee;strokeColor=#000000;exitPerimeter=0;" parent="1" source="hatgkcDQqOX4R3luDJ8e-2" target="hatgkcDQqOX4R3luDJ8e-20" edge="1">
          <mxGeometry width="160" relative="1" as="geometry">
            <mxPoint x="1031" y="421" as="sourcePoint" />
            <mxPoint x="752" y="426" as="targetPoint" />
          </mxGeometry>
        </mxCell>
        <mxCell id="hatgkcDQqOX4R3luDJ8e-211" value="&lt;font color=&quot;#66b2ff&quot; style=&quot;font-size: 13px;&quot;&gt;&amp;nbsp;&amp;lt;&amp;lt;include&amp;gt;&amp;gt;&amp;nbsp;&lt;/font&gt;" style="endArrow=open;endSize=12;dashed=1;html=1;rounded=0;entryX=0.5;entryY=0;entryDx=0;entryDy=0;exitX=1;exitY=0;exitDx=0;exitDy=0;fillColor=#eeeeee;strokeColor=#000000;" parent="1" target="hatgkcDQqOX4R3luDJ8e-33" edge="1">
          <mxGeometry width="160" relative="1" as="geometry">
            <mxPoint x="1172.63" y="671.5" as="sourcePoint" />
            <mxPoint x="1348.63" y="591.5" as="targetPoint" />
          </mxGeometry>
        </mxCell>
        <mxCell id="hatgkcDQqOX4R3luDJ8e-212" value="&lt;font color=&quot;#66b2ff&quot; style=&quot;font-size: 13px;&quot;&gt;&amp;nbsp;&amp;lt;&amp;lt;include&amp;gt;&amp;gt;&amp;nbsp;&lt;/font&gt;" style="endArrow=open;endSize=12;dashed=1;html=1;rounded=0;entryX=0.5;entryY=0;entryDx=0;entryDy=0;exitX=1;exitY=1;exitDx=0;exitDy=0;fillColor=#eeeeee;strokeColor=#000000;" parent="1" source="hatgkcDQqOX4R3luDJ8e-2" edge="1">
          <mxGeometry width="160" relative="1" as="geometry">
            <mxPoint x="1235.2462120245873" y="693.1846590184405" as="sourcePoint" />
            <mxPoint x="1326.6850000000004" y="911.75" as="targetPoint" />
          </mxGeometry>
        </mxCell>
        <mxCell id="hatgkcDQqOX4R3luDJ8e-213" value="" style="endArrow=none;html=1;rounded=0;entryX=0.5;entryY=1;entryDx=0;entryDy=0;" parent="1" target="hatgkcDQqOX4R3luDJ8e-33" edge="1">
          <mxGeometry width="50" height="50" relative="1" as="geometry">
            <mxPoint x="1569" y="647" as="sourcePoint" />
            <mxPoint x="1652" y="1068" as="targetPoint" />
            <Array as="points">
              <mxPoint x="1655" y="647" />
              <mxPoint x="1655" y="1171" />
              <mxPoint x="1526" y="1171" />
            </Array>
          </mxGeometry>
        </mxCell>
        <mxCell id="hatgkcDQqOX4R3luDJ8e-214" value="" style="endArrow=none;html=1;rounded=0;entryX=0.5;entryY=1;entryDx=0;entryDy=0;" parent="1" target="hatgkcDQqOX4R3luDJ8e-32" edge="1">
          <mxGeometry width="50" height="50" relative="1" as="geometry">
            <mxPoint x="1523" y="1126" as="sourcePoint" />
            <mxPoint x="1267" y="1120" as="targetPoint" />
            <Array as="points">
              <mxPoint x="1335" y="1126" />
            </Array>
          </mxGeometry>
        </mxCell>
        <mxCell id="hatgkcDQqOX4R3luDJ8e-215" value="" style="endArrow=none;html=1;rounded=0;entryX=0.5;entryY=1;entryDx=0;entryDy=0;" parent="1" edge="1">
          <mxGeometry width="50" height="50" relative="1" as="geometry">
            <mxPoint x="1336" y="1092" as="sourcePoint" />
            <mxPoint x="1140" y="1000" as="targetPoint" />
            <Array as="points">
              <mxPoint x="1140" y="1092" />
            </Array>
          </mxGeometry>
        </mxCell>
        <mxCell id="_uw94Xala10GTrVy-LxW-2" value="&lt;font style=&quot;font-size: 20px;&quot;&gt;&lt;b&gt;PHChat ( General Use-case Diagram )&amp;nbsp;&lt;/b&gt;&lt;/font&gt;" style="rounded=0;whiteSpace=wrap;html=1;shadow=1;strokeColor=#6c8ebf;fillColor=#dae8fc;" parent="1" vertex="1">
          <mxGeometry x="-102" y="40" width="1729" height="40" as="geometry" />
        </mxCell>
        <mxCell id="_uw94Xala10GTrVy-LxW-3" value="" style="rounded=0;whiteSpace=wrap;html=1;" parent="1" vertex="1">
          <mxGeometry x="1627" y="38" width="183" height="153" as="geometry" />
        </mxCell>
        <mxCell id="_uw94Xala10GTrVy-LxW-4" value="" style="shape=image;verticalLabelPosition=bottom;labelBackgroundColor=default;verticalAlign=top;aspect=fixed;imageAspect=0;image=https://upload.wikimedia.org/wikipedia/vi/1/19/Untitled-1.png;imageBackground=#E6D0DE;imageBorder=#ffffff;strokeWidth=6;shadow=0;" parent="1" vertex="1">
          <mxGeometry x="1648.25" y="44.25" width="142.75" height="142.75" as="geometry" />
        </mxCell>
        <mxCell id="LQKQuofuPHGavPNqAvr9-1" value="&lt;font style=&quot;font-size: 17px;&quot;&gt;Tìm kiếm&lt;/font&gt;" style="ellipse;whiteSpace=wrap;html=1;fillColor=#cce5ff;strokeColor=none;" vertex="1" parent="1">
          <mxGeometry x="246" y="611.13" width="120" height="70" as="geometry" />
        </mxCell>
        <mxCell id="LQKQuofuPHGavPNqAvr9-2" value="&lt;font style=&quot;font-size: 16px;&quot;&gt;Xác thực user và kiểm tra thông tin&lt;/font&gt;" style="ellipse;whiteSpace=wrap;html=1;fillColor=#cce5ff;strokeColor=none;" vertex="1" parent="1">
          <mxGeometry x="555.5" y="603.06" width="139" height="82.87" as="geometry" />
        </mxCell>
        <mxCell id="LQKQuofuPHGavPNqAvr9-3" value="&lt;font style=&quot;font-size: 16px;&quot;&gt;Trả về thông tin người dùng tìm kiếm&lt;/font&gt;" style="ellipse;whiteSpace=wrap;html=1;fillColor=#cce5ff;strokeColor=none;" vertex="1" parent="1">
          <mxGeometry x="555.5" y="695" width="139" height="82.87" as="geometry" />
        </mxCell>
        <mxCell id="LQKQuofuPHGavPNqAvr9-4" value="&lt;font color=&quot;#66b2ff&quot; style=&quot;font-size: 13px;&quot;&gt;&amp;nbsp;&amp;lt;&amp;lt;include&amp;gt;&amp;gt;&amp;nbsp;&lt;/font&gt;" style="endArrow=open;endSize=12;dashed=1;html=1;rounded=0;entryX=0;entryY=0.5;entryDx=0;entryDy=0;fillColor=#eeeeee;strokeColor=#000000;exitX=1;exitY=0.5;exitDx=0;exitDy=0;" edge="1" parent="1" source="LQKQuofuPHGavPNqAvr9-1" target="LQKQuofuPHGavPNqAvr9-2">
          <mxGeometry width="160" relative="1" as="geometry">
            <mxPoint x="395" y="625" as="sourcePoint" />
            <mxPoint x="562" y="657" as="targetPoint" />
          </mxGeometry>
        </mxCell>
        <mxCell id="LQKQuofuPHGavPNqAvr9-5" value="&lt;font color=&quot;#66b2ff&quot; style=&quot;font-size: 13px;&quot;&gt;&amp;nbsp;&amp;lt;&amp;lt;include&amp;gt;&amp;gt;&amp;nbsp;&lt;/font&gt;" style="endArrow=open;endSize=12;dashed=1;html=1;rounded=0;entryX=0.051;entryY=0.314;entryDx=0;entryDy=0;fillColor=#eeeeee;strokeColor=#000000;entryPerimeter=0;exitX=1;exitY=1;exitDx=0;exitDy=0;" edge="1" parent="1" source="LQKQuofuPHGavPNqAvr9-1" target="LQKQuofuPHGavPNqAvr9-3">
          <mxGeometry width="160" relative="1" as="geometry">
            <mxPoint x="392" y="662.13" as="sourcePoint" />
            <mxPoint x="552" y="681.13" as="targetPoint" />
          </mxGeometry>
        </mxCell>
        <mxCell id="LQKQuofuPHGavPNqAvr9-6" value="&lt;font color=&quot;#66b2ff&quot; style=&quot;font-size: 13px;&quot;&gt;&amp;nbsp;&amp;lt;&amp;lt;include&amp;gt;&amp;gt;&amp;nbsp;&lt;/font&gt;" style="endArrow=open;endSize=12;dashed=1;html=1;rounded=0;entryX=1;entryY=0.5;entryDx=0;entryDy=0;exitX=0;exitY=0.5;exitDx=0;exitDy=0;fillColor=#eeeeee;strokeColor=#000000;" edge="1" parent="1" source="hatgkcDQqOX4R3luDJ8e-2" target="LQKQuofuPHGavPNqAvr9-2">
          <mxGeometry width="160" relative="1" as="geometry">
            <mxPoint x="1086" y="758" as="sourcePoint" />
            <mxPoint x="777" y="629" as="targetPoint" />
          </mxGeometry>
        </mxCell>
        <mxCell id="LQKQuofuPHGavPNqAvr9-7" value="&lt;font color=&quot;#66b2ff&quot; style=&quot;font-size: 13px;&quot;&gt;&amp;nbsp;&amp;lt;&amp;lt;include&amp;gt;&amp;gt;&amp;nbsp;&lt;/font&gt;" style="endArrow=open;endSize=12;dashed=1;html=1;rounded=0;entryX=1;entryY=0.5;entryDx=0;entryDy=0;fillColor=#eeeeee;strokeColor=#000000;exitX=0.015;exitY=0.644;exitDx=0;exitDy=0;exitPerimeter=0;" edge="1" parent="1" source="hatgkcDQqOX4R3luDJ8e-2" target="hatgkcDQqOX4R3luDJ8e-26">
          <mxGeometry width="160" relative="1" as="geometry">
            <mxPoint x="971" y="639" as="sourcePoint" />
            <mxPoint x="692" y="1039" as="targetPoint" />
          </mxGeometry>
        </mxCell>
        <mxCell id="LQKQuofuPHGavPNqAvr9-8" value="" style="endArrow=none;html=1;rounded=0;entryX=0;entryY=0.5;entryDx=0;entryDy=0;" edge="1" parent="1" target="LQKQuofuPHGavPNqAvr9-1">
          <mxGeometry width="50" height="50" relative="1" as="geometry">
            <mxPoint x="156" y="649" as="sourcePoint" />
            <mxPoint x="179" y="618" as="targetPoint" />
          </mxGeometry>
        </mxCell>
        <mxCell id="LQKQuofuPHGavPNqAvr9-9" value="&lt;font style=&quot;font-size: 17px;&quot;&gt;Tạo nhóm chat&lt;/font&gt;" style="ellipse;whiteSpace=wrap;html=1;fillColor=#cce5ff;strokeColor=none;" vertex="1" parent="1">
          <mxGeometry x="197" y="1215" width="120" height="70" as="geometry" />
        </mxCell>
        <mxCell id="LQKQuofuPHGavPNqAvr9-10" value="&lt;span style=&quot;font-size: 17px;&quot;&gt;Thêm người dùng vào nhóm&lt;/span&gt;" style="ellipse;whiteSpace=wrap;html=1;fillColor=#cce5ff;strokeColor=none;" vertex="1" parent="1">
          <mxGeometry x="555.5" y="1215" width="134" height="80" as="geometry" />
        </mxCell>
        <mxCell id="LQKQuofuPHGavPNqAvr9-11" value="&lt;span style=&quot;font-size: 17px;&quot;&gt;Xác thực yêu cầu tạo nhóm&lt;/span&gt;" style="ellipse;whiteSpace=wrap;html=1;fillColor=#cce5ff;strokeColor=none;" vertex="1" parent="1">
          <mxGeometry x="553" y="1317" width="134" height="80" as="geometry" />
        </mxCell>
        <mxCell id="LQKQuofuPHGavPNqAvr9-12" value="&lt;span style=&quot;font-size: 17px;&quot;&gt;Tạo nhóm mới&lt;/span&gt;" style="ellipse;whiteSpace=wrap;html=1;fillColor=#cce5ff;strokeColor=none;" vertex="1" parent="1">
          <mxGeometry x="555.5" y="1412" width="134" height="80" as="geometry" />
        </mxCell>
        <mxCell id="LQKQuofuPHGavPNqAvr9-13" value="&lt;font color=&quot;#66b2ff&quot; style=&quot;font-size: 13px;&quot;&gt;&amp;nbsp;&amp;lt;&amp;lt;include&amp;gt;&amp;gt;&amp;nbsp;&lt;/font&gt;" style="endArrow=open;endSize=12;dashed=1;html=1;rounded=0;entryX=0;entryY=0.5;entryDx=0;entryDy=0;fillColor=#eeeeee;strokeColor=#000000;" edge="1" parent="1" target="LQKQuofuPHGavPNqAvr9-10">
          <mxGeometry width="160" relative="1" as="geometry">
            <mxPoint x="320" y="1246" as="sourcePoint" />
            <mxPoint x="562" y="1397" as="targetPoint" />
          </mxGeometry>
        </mxCell>
        <mxCell id="LQKQuofuPHGavPNqAvr9-14" value="&lt;font color=&quot;#66b2ff&quot; style=&quot;font-size: 13px;&quot;&gt;&amp;nbsp;&amp;lt;&amp;lt;include&amp;gt;&amp;gt;&amp;nbsp;&lt;/font&gt;" style="endArrow=open;endSize=12;dashed=1;html=1;rounded=0;entryX=0;entryY=0.5;entryDx=0;entryDy=0;fillColor=#eeeeee;strokeColor=#000000;" edge="1" parent="1" target="LQKQuofuPHGavPNqAvr9-11">
          <mxGeometry width="160" relative="1" as="geometry">
            <mxPoint x="304" y="1274" as="sourcePoint" />
            <mxPoint x="540" y="1283" as="targetPoint" />
          </mxGeometry>
        </mxCell>
        <mxCell id="LQKQuofuPHGavPNqAvr9-15" value="&lt;font color=&quot;#66b2ff&quot; style=&quot;font-size: 13px;&quot;&gt;&amp;nbsp;&amp;lt;&amp;lt;include&amp;gt;&amp;gt;&amp;nbsp;&lt;/font&gt;" style="endArrow=open;endSize=12;dashed=1;html=1;rounded=0;entryX=0;entryY=0.5;entryDx=0;entryDy=0;fillColor=#eeeeee;strokeColor=#000000;exitX=0.5;exitY=1;exitDx=0;exitDy=0;" edge="1" parent="1" source="LQKQuofuPHGavPNqAvr9-9" target="LQKQuofuPHGavPNqAvr9-12">
          <mxGeometry width="160" relative="1" as="geometry">
            <mxPoint x="274" y="1338" as="sourcePoint" />
            <mxPoint x="510" y="1347" as="targetPoint" />
          </mxGeometry>
        </mxCell>
        <mxCell id="LQKQuofuPHGavPNqAvr9-16" value="&lt;font color=&quot;#66b2ff&quot; style=&quot;font-size: 13px;&quot;&gt;&amp;nbsp;&amp;lt;&amp;lt;include&amp;gt;&amp;gt;&amp;nbsp;&lt;/font&gt;" style="endArrow=open;endSize=12;dashed=1;html=1;rounded=0;entryX=1;entryY=0.5;entryDx=0;entryDy=0;exitX=0.397;exitY=0.998;exitDx=0;exitDy=0;fillColor=#eeeeee;strokeColor=#000000;exitPerimeter=0;" edge="1" parent="1" source="hatgkcDQqOX4R3luDJ8e-2">
          <mxGeometry width="160" relative="1" as="geometry">
            <mxPoint x="1014" y="903" as="sourcePoint" />
            <mxPoint x="687" y="1356" as="targetPoint" />
          </mxGeometry>
        </mxCell>
        <mxCell id="LQKQuofuPHGavPNqAvr9-17" value="&lt;font color=&quot;#66b2ff&quot; style=&quot;font-size: 13px;&quot;&gt;&amp;nbsp;&amp;lt;&amp;lt;include&amp;gt;&amp;gt;&amp;nbsp;&lt;/font&gt;" style="endArrow=open;endSize=12;dashed=1;html=1;rounded=0;entryX=1;entryY=0.5;entryDx=0;entryDy=0;exitX=0.251;exitY=0.929;exitDx=0;exitDy=0;fillColor=#eeeeee;strokeColor=#000000;exitPerimeter=0;" edge="1" parent="1" source="hatgkcDQqOX4R3luDJ8e-2">
          <mxGeometry width="160" relative="1" as="geometry">
            <mxPoint x="1054" y="611.13" as="sourcePoint" />
            <mxPoint x="687" y="1251.13" as="targetPoint" />
          </mxGeometry>
        </mxCell>
      </root>
    </mxGraphModel>
  </diagram>
</mxfile>
